<?xml version="1.0" encoding="UTF-8" standalone="no"?>
<!-- Created with Inkscape (http://www.inkscape.org/) -->

<svg
   xmlns:dc="http://purl.org/dc/elements/1.1/"
   xmlns:cc="http://creativecommons.org/ns#"
   xmlns:rdf="http://www.w3.org/1999/02/22-rdf-syntax-ns#"
   xmlns:svg="http://www.w3.org/2000/svg"
   xmlns="http://www.w3.org/2000/svg"
   xmlns:sodipodi="http://sodipodi.sourceforge.net/DTD/sodipodi-0.dtd"
   xmlns:inkscape="http://www.inkscape.org/namespaces/inkscape"
   width="112.19609mm"
   height="128.11317mm"
   viewBox="0 0 397.5452 453.94432"
   id="svg2"
   version="1.1"
   inkscape:version="0.91 r13725"
   sodipodi:docname="hyenaR_logo_final_v4.svg">
  <defs
     id="defs4" />
  <sodipodi:namedview
     id="base"
     pagecolor="#ffffff"
     bordercolor="#666666"
     borderopacity="1.0"
     inkscape:pageopacity="0.0"
     inkscape:pageshadow="2"
     inkscape:zoom="0.98994949"
     inkscape:cx="9.0655546"
     inkscape:cy="203.11267"
     inkscape:document-units="px"
     inkscape:current-layer="layer1"
     showgrid="false"
     inkscape:window-width="1707"
     inkscape:window-height="901"
     inkscape:window-x="-8"
     inkscape:window-y="-8"
     inkscape:window-maximized="1"
     showborder="true"
     fit-margin-top="0"
     fit-margin-left="0"
     fit-margin-right="0"
     fit-margin-bottom="0" />
  <metadata
     id="metadata7">
    <rdf:RDF>
      <cc:Work
         rdf:about="">
        <dc:format>image/svg+xml</dc:format>
        <dc:type
           rdf:resource="http://purl.org/dc/dcmitype/StillImage" />
        <dc:title></dc:title>
      </cc:Work>
    </rdf:RDF>
  </metadata>
  <g
     inkscape:groupmode="layer"
     id="layer5"
     inkscape:label="background"
     style="display:inline;opacity:0.85"
     transform="translate(-181.399,-135.98975)">
    <path
       inkscape:connector-curvature="0"
       id="path3467"
       d="M 375.2693,585.72952 C 373.94003,585.3268 202.35631,485.60353 188.15912,476.99535 c -3.07154,-1.86237 -5.05156,-3.17735 -5.69197,-4.69459 -0.75813,-1.79616 1.58175,-17.00804 0.36042,-111.13525 l -0.53571,-107.42053 2.48169,-2.09269 c 1.54661,-1.30419 20.0546,-13.39681 94.70982,-56.9324 51.21654,-29.86722 94.245,-55.37217 96.38588,-56.37357 4.27419,-1.99924 4.06099,-1.31868 7.4776,-0.12824 1.24668,0.43437 44.79185,25.89217 97.30491,56.47606 85.34945,49.70797 95.21191,55.46498 95.97668,57.27728 0.71534,1.69518 2.25738,17.8046 2.12107,111.07644 -0.16165,110.61538 -1.60204,109.77361 -2.84158,110.98773 -1.18468,1.16039 -181.67302,107.0469 -190.02309,111.45585 -4.02975,2.12777 -7.04892,1.31861 -10.61554,0.23808 z"
       style="display:inline;fill:#c1d49a;opacity:0.8"
       sodipodi:nodetypes="sssscssssssssss" />
  </g>
  <g
     inkscape:label="hyena background"
     inkscape:groupmode="layer"
     id="layer1"
     style="display:inline"
     transform="translate(-181.399,-135.98975)">
    <path
       inkscape:connector-curvature="0"
       id="path3465"
       d="m 182.28288,473.4243 -0.88388,-110.88525 0.625,-110.75264 197.95355,-114.73843 197.94953,113.50358 0.82078,112.70052 -0.42922,110.20051 C 512.90934,512.22544 447.50742,552.39157 380.63029,588.88631 348.69071,570.53788 240.74012,506.42733 182.28288,473.4243 Z m 203.45161,98.17442 c 2.49371,-1.37656 5.38484,-3.86465 5.76997,-4.32872 0.99869,-1.20335 -0.5496,-5.88858 -4.57675,-18.88274 -1.8644,-6.01562 -3.91335,-12.04352 -4.33497,-13.50446 -0.42163,-1.46094 -2.31563,-4.62054 -2.31563,-4.62054 -0.26136,0.0263 -1.89049,3.10827 -2.30783,4.39733 -1.50661,4.65361 -3.08112,7.64795 -8.61223,14.59123 -6.62264,8.31347 -9.85343,12.78879 -8.69526,13.90999 0.73896,0.71538 18.78527,11.28914 18.78527,11.28914 0,0 3.79372,-1.47467 6.28743,-2.85123 z m -40.07781,-30.53288 c 4.92654,-9.67671 6.60158,-15.63309 6.60693,-22.23215 0.004,-4.47973 -3.82143,-14.99253 -4.97837,-16.14947 -1.47281,-1.47281 -20.5291,35.95913 -20.5291,40.37284 0,1.10748 11.76091,8.33461 13.21762,8.15716 0.46836,-0.0571 3.32031,-5.50775 5.68292,-10.14838 z M 564.88114,467.30585 564.97043,259.03 379.85121,150.88726 C 320.3009,188.55947 195.69817,258.49902 195.69817,258.49902 l -0.94701,208.79195 c 0,0 84.80923,49.57203 109.31633,62.95969 0.77785,0 1.25288,-6.96908 1.95758,-20.83737 0.32838,-6.46223 0.82509,-11.95542 1.07246,-12.37373 0,0 0.32832,-8.9581 0.37774,-19.09872 0.0801,-16.43066 0.67701,-18.62459 1.82918,-23.08036 0.71108,-2.75 1.20899,-5.92189 1.43382,-6.503 0.31405,-0.81169 -0.76237,-2.22738 -3.16462,-3.44469 -10.91981,-5.53349 -22.81595,-21.78043 -25.48206,-34.65053 -0.80634,-3.89244 -0.6771,-5.35415 -0.11225,-10.80357 1.09063,-10.52187 1.37002,-11.16737 3.30563,-11.10452 1.52835,0.0496 0.87683,0.78228 2.6341,4.94381 l 1.38213,4.86607 3.84433,-6.9811 c 2.75132,-5.40502 7.71678,-10.56298 12.64082,-13.20819 2.2957,-1.23325 3.87724,-1.98583 6.60914,-2.20512 4.25296,-0.34139 8.01407,0.12084 8.52128,1.44263 0.16326,0.42545 0.30672,2.37167 -0.77246,5.41623 -2.46983,6.96776 -5.34742,16.71618 -4.88961,17.17399 0.19125,0.19125 1.72543,1.60979 2.53628,1.40627 1.90166,-0.47728 4.05445,-0.25703 4.05445,1.44967 0,0.71277 -0.97572,1.89044 -2.38653,3.49007 -3.68117,4.17389 -6.27419,9.35037 -6.27419,13.04503 0,3.15563 3.87494,11.99111 4.87963,12.61203 0.30799,0.19035 4.08582,-3.06339 6.64913,-5.59365 14.33944,-14.1545 35.25843,-24.96791 55.99533,-29.63865 2.00208,-0.45094 3.23121,-2.44044 3.16788,-2.78419 -0.0633,-0.34375 -1.64784,-1.65484 -3.84851,-2.36789 -4.55185,-2.12881 -6.58699,-3.55786 -8.34445,-7.45772 -1.09843,-2.43743 0.32176,-6.92129 -1.21975,-18.06255 l -0.86338,-10.3798 -2.9031,-3.17113 c -3.38412,-2.81104 -4.89805,-5.26908 -6.94829,-11.21053 -2.05699,-5.961 -1.91981,-13.28639 -0.14726,-18.41493 2.28338,-6.60656 8.927,-14.97824 12.12385,-15.78059 2.61905,-0.65735 4.6841,0.23655 10.59291,7.38997 l 9.34435,11.31262 -0.31975,-5.44843 c -0.70015,-2.61682 1.63506,-1.80523 5.56153,-0.65957 2.00336,0.58454 4.44918,1.78066 4.63093,1.59891 0.18175,-0.18175 -0.80479,-3.28421 -1.53754,-4.27531 -1.46109,-1.97623 -1.14074,-1.78265 0.75438,-2.79688 1.60059,-0.85661 2.95238,1.32156 7.58583,5.61131 2.04529,1.89359 4.04324,3.71073 4.22162,3.71073 0.17838,0 2.63622,-4.71763 3.38845,-7.20982 2.63925,-8.74415 4.95254,-11.97676 8.59172,-11.98426 0.62276,-10e-4 3.20535,0.50954 5.84821,1.78995 6.60013,3.1976 13.55249,10.3479 16.611,16.63114 2.03976,4.19038 2.53097,7.48123 2.83707,11.40666 0.2682,3.43947 -0.55951,7.71033 -2.00893,10.15289 -1.19264,2.00984 -4.45424,4.89665 -5.91518,6.10166 -2.92119,2.40947 -2.59441,4.05712 -1.13455,7.55105 2.13761,5.11602 6.58336,21.51808 8.0179,29.9546 0.83261,4.89653 1.98922,14.53492 2.35201,20.98214 0.42782,7.60299 1.53177,15.43817 2.15794,19.13292 1.21578,7.17371 1.85348,20.04008 0.78079,28.60934 -1.36999,10.94434 -2.98996,17.62647 -7.43489,26.07096 -2.54468,4.83436 -5.05428,10.61296 -5.75566,13.57863 -0.60972,2.57812 -3.60355,12.22991 -6.87122,21.33929 -5.17713,14.43246 -9.59,28.12378 -9.59,29.85644 0,0.29418 4.75335,-1.247 5.87054,-1.89665 47.61698,-27.63224 134.57589,-78.14837 134.57589,-78.14837 z"
       style="fill:#b88330;fill-opacity:1"
       sodipodi:nodetypes="ccccccccccscssssscccscsscccccccssssssssssscsssssscssscsscssscssssscsssssssscssssssssssssscc" />
  </g>
  <g
     inkscape:groupmode="layer"
     id="layer6"
     inkscape:label="hyena + hexagon"
     style="display:inline"
     transform="translate(-181.399,-135.98975)">
    <path
       inkscape:connector-curvature="0"
       id="path3463-9"
       d="m 379.35091,589.93406 -197.88827,-116.01425 -0.0631,-111.14709 0,-110.70514 c 0,0 -0.016,0.032 0.3357,-0.64917 68.21949,-40.92631 194.8726,-114.63591 194.8726,-114.63591 0,0 3.3212,-1.7623 6.4583,-0.0318 68.78136,40.82368 128.67015,75.80101 195.63474,113.40172 -0.19955,77.86195 0.24332,223.71502 0.24332,223.71502 L 381.31503,589.93402 Z m 5.5975,-18.47545 c 5.3244,-3.10175 6.1388,-3.8667 6.137,-5.7639 0,-3.62219 -9.5219,-34.74688 -10.6261,-34.74688 -0.4186,0 -1.379,1.6875 -2.1342,3.75 -2.286,6.24316 -3.2511,7.83681 -9.2951,15.34924 -6.378,7.92749 -8.4547,11.51237 -7.524,12.9879 0.7844,1.2435 17.0719,10.72536 18.4235,10.72536 0.5873,0 2.8459,-1.03578 5.0189,-2.30172 z m 22.4494,-13.65232 c 5.5993,-3.27472 10.2669,-6.04032 10.3723,-6.14579 0.1055,-0.10547 1.318,-4.29904 2.6944,-9.31905 1.3764,-5.02001 4.9283,-15.82472 7.8931,-24.01046 2.9648,-8.18574 6.3164,-18.25816 7.448,-22.38316 1.4571,-5.31167 2.9837,-9.14125 5.232,-13.125 1.746,-3.09375 3.8935,-7.86929 4.7721,-10.61233 4.2721,-13.33646 5.2506,-30.43861 2.5039,-43.76267 -1.0117,-4.90794 -1.7743,-11.54405 -2.2065,-19.20124 -0.9643,-17.08551 -2.9905,-27.92505 -8.2689,-44.23626 -2.9504,-9.11709 -3.5368,-10.37244 -9.4589,-20.24666 -4.2644,-7.11037 -4.4591,-7.60612 -4.4692,-11.38238 -0.012,-4.4182 1.0928,-6.29925 3.29,-5.60191 2.127,0.67509 2.9446,3.65536 2.0388,7.4314 -0.6119,2.55032 -0.6188,3.85153 -0.032,6.03004 0.9684,3.59639 4.0979,8.14451 5.6041,8.14451 1.9894,0 7.267,-4.69511 8.7718,-7.80356 1.2144,-2.50857 1.3664,-3.63096 1.1283,-8.3291 -0.3389,-6.6883 -1.481,-9.1097 -7.1122,-15.07915 -4.4382,-4.70471 -8.9526,-7.93259 -11.9258,-8.52723 -1.7085,-0.34172 -1.9929,-0.15704 -2.9884,1.94075 -0.605,1.27512 -1.914,4.92224 -2.9088,8.1047 -1.9505,6.23985 -2.394,6.86231 -5.2513,7.36914 -1.0312,0.18292 -1.4138,0.21122 -2.162,0.44872 -1.0028,0.31833 -2.733,0.36857 -3.5732,-0.69445 -0.6269,-0.79306 -2.1926,-2.8885 -4.5304,-5.37871 -1.9311,-2.05704 -3.4663,-3.36083 -4.4467,-4.3658 -2.1376,-2.19126 0.4332,-4.23301 1.6292,-3.63175 1.1902,0.59832 2.3184,1.1315 5.9903,4.66069 1.6726,1.60759 3.2794,3.46342 4.283,4.23439 0.5109,0.39245 0.8655,0.17636 0.9929,0.17636 0.3777,0 1.3147,-2.1612 2.0822,-4.80266 2.6894,-9.25577 6.0055,-14.10359 9.6474,-14.10359 2.311,0 9.16,3.57126 12.7671,6.65707 7.7783,6.65428 11.5612,12.5694 12.6896,19.84216 1.3965,9.00075 -0.2628,14.17128 -6.4246,20.01993 l -3.7406,3.5504 2.8456,8.6371 c 5.7344,17.40575 8.0876,30.10174 9.1307,49.26209 0.4329,7.95321 1.0188,12.80682 1.9992,16.5625 1.1689,4.47824 1.387,6.98102 1.3889,15.9375 0,17.16527 -2.3667,28.08728 -8.681,40 -2.7282,5.14715 -4.4526,9.36268 -5.4967,13.4375 -0.8368,3.26562 -4.0951,13.08139 -7.2406,21.81281 -5.8515,16.24269 -9.0561,26.70326 -8.4709,27.65028 0.181,0.29278 1.2271,0.0689 2.3248,-0.49741 6.3298,-3.26587 135.2557,-78.65773 135.902,-79.47129 0.6179,-0.77766 0.7813,-22.53119 0.7813,-104.01725 l 0,-103.03396 -1.4063,-1.38719 c -1.5729,-1.55158 -181.8232,-106.68098 -182.9105,-106.68098 -1.1794,0 -182.05383,105.80089 -183.21323,107.16548 -1.032,1.21475 -0.84116,6.84967 -1.21997,104.15987 0,101.0861 0.023,103.0817 1.2077,104.09596 2.051,1.75614 105.9428,62.07442 106.5707,61.87365 1.1398,-0.36439 1.6522,-3.95691 2.1997,-15.41997 0.3037,-6.35938 0.8871,-14.23438 1.2964,-17.5 0.4694,-3.74414 0.6159,-10.06362 0.3966,-17.10706 -0.3806,-12.22425 0.2053,-19.59125 2.0969,-26.37031 0.6776,-2.42817 1.232,-4.73199 1.232,-5.11959 0,-0.38761 -1.6762,-1.59817 -3.725,-2.69013 -9.928,-5.29158 -21.6921,-20.65528 -24.7215,-32.28572 -2.1145,-8.11828 -0.2233,-25.17719 2.7913,-25.17719 1.3025,0 2.5194,2.13963 3.2083,5.64142 0.404,2.05347 1.0495,3.73327 1.4345,3.7329 0.3849,-3.8e-4 1.6706,-2.18006 2.8569,-4.84375 3.7879,-8.50488 12.8426,-16.03072 20.2984,-16.8711 3.7559,-0.42335 9.1079,0.89732 9.1043,2.24662 0,0.56727 -0.9954,3.98083 -2.2087,7.58567 -2.8666,8.51695 -4.1941,13.70132 -3.7828,14.77314 0.2007,0.52304 1.2685,0.8601 2.7247,0.8601 2.4142,0 3.8946,0.85906 3.8946,2.26009 0,0.41805 -1.0933,1.93254 -2.4295,3.36553 -4.1243,4.42287 -5.995,8.47337 -5.9171,12.81188 0.077,4.3059 2.541,11.76631 3.9735,12.03241 0.5146,0.0956 3.1898,-2.01009 5.945,-4.6793 11.5593,-11.19881 26.9667,-20.54633 43.9071,-26.63801 3.8622,-1.38884 12.7065,-3.53421 19.0769,-4.62751 3.1043,-0.53276 5.4984,2.98939 3.2822,4.82869 -0.5016,0.41626 -2.9355,1.01091 -5.4086,1.32146 -6.448,0.80964 -11.8517,2.23867 -18.992,5.0225 -8.1411,3.17403 -20,9.45879 -20,10.59921 0,0.59701 0.8534,0.95281 2.5889,1.07944 5.1413,0.37513 6.212,4.89375 1.6076,6.78406 -1.2768,0.52419 -3.2512,1.84159 -4.3875,2.92756 -1.8779,1.79474 -2.4298,1.97449 -6.0625,1.97449 -4.8646,0 -5.8193,-0.69672 -4.6901,-3.42277 0.4396,-1.06139 0.6565,-2.07265 0.4819,-2.24722 -0.5828,-0.58285 -8.4825,6.63622 -12.0989,11.05656 -4.5784,5.59619 -5.7178,5.62531 -9.3267,0.23843 -3.2059,-4.78514 -4.7365,-9.38168 -5.1375,-15.42807 -0.2929,-4.41548 -0.1621,-5.13752 1.6209,-8.94776 l 1.9396,-4.14469 -1.6504,-1.41959 c -1.6412,-1.41172 -1.646,-1.44174 -0.862,-5.42723 0.4336,-2.20422 1.7448,-7.29899 2.9138,-11.32172 1.169,-4.02274 2.1254,-7.50508 2.1254,-7.73855 0,-1.18402 -5.5128,0.51054 -8.6177,2.64897 -4.6968,3.2348 -7.6782,7.20941 -10.4822,13.9744 -2.6377,6.36354 -4.5069,8.38479 -7.2058,7.792 -0.9352,-0.2054 -1.8767,-0.088 -2.0923,0.26081 -0.7413,1.19938 1.5449,8.97766 4.059,13.81004 3.1939,6.13916 9.8713,14.47051 14.416,17.98695 1.933,1.49561 5.4486,3.5057 7.8125,4.46686 4.1631,1.6927 4.2956,1.81411 4.223,3.86757 -0.041,1.166 -0.5789,3.39318 -1.1949,4.94928 l -1.1199,2.82928 1.5964,2.48322 c 1.2702,1.97576 1.6612,3.52678 1.9136,7.58967 0.3846,6.18962 -0.3422,7.70606 -3.6933,7.70606 l -2.1897,0 0.3971,7.34375 c 0.2183,4.03906 0.095,10.4375 -0.2734,14.21875 -0.3687,3.78125 -0.9697,11.87796 -1.3356,17.99269 l -0.6652,11.11769 3.7118,3.56981 c 2.0415,1.9634 3.887,4.14306 4.1013,4.8437 0.2272,0.74294 -0.1315,2.29587 -0.8606,3.7259 -0.6876,1.3486 -1.2501,2.50912 -1.2501,2.57893 0,0.54843 5.9494,3.28339 6.3229,2.90662 0.2645,-0.26693 1.7238,-3.57909 3.2428,-7.36034 3.2461,-8.08038 6.8759,-15.39645 12.5586,-25.3125 2.2655,-3.95312 4.1205,-7.49761 4.1224,-7.87663 0,-0.37902 -1.6842,-2.27347 -3.7467,-4.20989 -2.0625,-1.93642 -3.75,-3.92653 -3.75,-4.42247 0,-1.2562 1.7396,-2.86601 3.0971,-2.86601 0.623,0 3.8804,2.4069 7.2386,5.34866 6.6497,5.82503 8.7645,7.11646 14.2793,8.71965 4.0351,1.17304 12.9439,1.12282 14.1464,-0.0797 0.8711,-0.87111 -0.4912,-6.39581 -3.5034,-14.20754 -1.1732,-3.04231 -2.133,-6.19647 -2.133,-7.00926 0,-1.91389 2.0227,-3.07121 3.751,-2.14622 2.463,1.31814 6.1826,12.4066 10.0633,29.99945 1.7061,7.73437 3.3549,14.625 3.664,15.3125 0.5067,1.12681 0.5663,1.08462 0.6044,-0.42806 0.023,-0.92294 0.3166,-2.3995 0.6518,-3.28125 0.5157,-1.3562 0.999,-1.60319 3.1374,-1.60319 2.4256,0 6.8004,2.10732 7.8285,3.77094 0.2368,0.38313 -0.1822,1.34883 -0.9311,2.146 -0.7489,0.79718 -1.8331,2.39272 -2.4092,3.54565 -1.3873,2.776 -2.6473,2.89031 -5.383,0.48838 -1.248,-1.09578 -2.4522,-1.80926 -2.6759,-1.58551 -0.681,0.68097 4.862,19.96258 6.1163,21.27602 0.3355,0.35124 1.0084,0.16685 1.7107,-0.46875 1.5091,-1.3657 3.8075,-1.34109 4.297,0.046 0.2124,0.60156 0.966,1.73753 1.6748,2.52436 0.9064,1.00624 1.2587,2.1813 1.1878,3.9612 -0.1251,3.13548 -0.9419,4.16877 -3.4906,4.41582 -1.7713,0.17168 -1.9704,0.38951 -1.8513,2.02571 0.1428,1.96374 0.5946,3.47916 1.0371,3.47916 0.1498,0 4.8535,-2.67932 10.4528,-5.95404 z m -0.8933,-27.25595 c -0.2148,-0.81264 -0.5724,-7.52439 -0.7947,-14.91501 -0.429,-14.26051 0.1927,-22.59253 2.9381,-39.375 1.5782,-9.64769 1.8088,-10.625 2.5068,-10.625 1.2488,0 0.1448,26.55627 -2.2541,54.2228 -0.8958,10.33088 -1.628,13.59809 -2.3961,10.69221 z m -92.1675,-25.66501 c -0.4125,-0.4125 -0.75,-2.09021 -0.75,-3.72825 0,-2.44688 0.3498,-3.37669 1.9607,-5.21139 2.5847,-2.94384 4.1019,-3.74388 5.2667,-2.7772 2.1451,1.78023 0.5301,7.96221 -2.8154,10.77727 -2.266,1.90668 -2.6073,1.99427 -3.662,0.93957 z m 63.5318,-25.14246 c -0.4769,-1.04667 -0.5212,-3.22811 -0.1429,-7.03125 l 0.5486,-5.51379 1.9345,-0.18863 c 3.3424,-0.32593 5.3455,2.85436 6.8998,10.95517 0.3409,1.77662 0.1868,2.09264 -1.2956,2.65625 -0.9254,0.35184 -2.9359,0.63971 -4.4678,0.63971 -2.3423,0 -2.8952,-0.24129 -3.4766,-1.51746 z m -41.7818,-28.66248 c -1.7328,-0.87226 -2.3518,-3.38635 -1.3121,-5.32916 0.7617,-1.42313 7.4356,-4.05784 9.5285,-3.76161 4.4501,0.62987 -0.6993,9.92393 -5.4777,9.8865 -0.6469,-0.005 -1.8794,-0.36315 -2.7387,-0.79573 z m 24.375,-6.66934 c -3.0012,-1.60385 -4.9103,-3.51297 -5.3785,-5.37851 -0.851,-3.39089 1.1493,-7.77221 3.5485,-7.77221 0.6057,0 2.3903,0.55251 3.9657,1.22779 l 2.8643,1.22779 0,4.75079 c 0,4.82382 -0.6806,7.19094 -2.0533,7.141 -0.4176,-0.0152 -1.7436,-0.55368 -2.9467,-1.19665 z m 15.6726,-28.29071 c -0.5227,-0.6105 -1.591,-1.11001 -2.374,-1.11001 -3.4018,0 -0.6299,-4.20008 3.6826,-5.57999 1.2616,-0.40367 2.617,-1.12336 3.012,-1.5993 1.0127,-1.22026 4.0813,-1.7755 5.5294,-1.00051 2.3171,1.24006 3.5829,8.46299 1.7498,9.98436 -0.5123,0.42514 -2.808,0.6493 -5.751,0.56154 -3.7943,-0.11314 -5.1126,-0.39626 -5.8488,-1.25609 z m 4.7758,-24.25063 c -3.5058,-0.88723 -5.6612,-2.16236 -7.8294,-4.63175 -2.6574,-3.02662 -4.5341,-10.01085 -4.1043,-16.42406 0.1958,-2.92188 1.107,-4.82255 0.7155,-8.5888 l -0.712,-6.84772 -3.4779,-3.46478 c -5.285,-5.26515 -7.9868,-13.61996 -7.3602,-22.76072 0.2838,-4.14106 0.7577,-5.81005 2.8464,-10.02368 1.4043,-2.83309 4.0604,-6.77251 6.0421,-8.96162 2.98,-3.29175 3.8615,-3.90625 5.6037,-3.90625 2.612,0 6.517,3.40579 13.5077,11.78111 3.8056,4.55929 4.9575,5.86544 4.817,7.06922 -0.4621,1.1922 -0.4512,1.80997 -1.8977,2.46282 -1.4617,0.65973 -2.4356,-0.43589 -4.2253,-2.6894 -4.593,-5.78311 -10.9895,-12.37309 -12.01,-12.37341 -1.3792,-4.3e-4 -5.5841,5.56613 -7.7064,10.20191 -1.5006,3.27762 -1.6257,4.14307 -1.3973,9.66757 0.1832,4.43248 0.6468,7.07828 1.7201,9.81768 1.3677,3.49057 4.7503,7.8125 6.1146,7.8125 0.3272,0 1.4982,-1.95974 2.6023,-4.35498 1.8593,-4.03391 1.9761,-4.67217 1.5834,-8.65727 -0.6163,-6.25463 1.0661,-8.7389 3.8412,-5.67187 1.9945,2.20436 1.4892,6.01894 -1.455,10.98388 -2.7483,4.63467 -5.047,8.39528 -5.047,9.81296 0,0.70527 0.7932,0.64746 2.7433,-0.19694 1.1709,-0.50702 3.9646,-0.48114 4.8512,0.73062 1.1011,1.50515 1.7561,3.54014 -1.0963,6.77074 -4.5043,5.10168 -5.0315,4.54303 -3.4931,2.11921 1.5383,-2.4238 0.7894,-1.75644 -0.5014,-2.2455 -1.3375,-0.50677 -2.1352,-2.46623 -2.0115,-4.00228 0,0 -0.6346,-0.69348 -0.6161,0.51173 0.026,1.68442 0.4732,6.2674 0.6528,7.66207 0.3082,2.39256 0.5695,4.67698 0.5807,5.07649 -0.1123,2.19679 1.5822,0.70972 4.8642,0.67474 6.7676,-0.0721 8.8787,1.13035 8.8967,5.06763 0.013,2.7573 -2.8059,5.78976 -6.1779,6.45312 -1.6339,0.31264 -2.8556,0.40784 -4.4543,0.21875 -3.3836,-0.40021 -3.2222,-0.53518 -0.9995,2.70441 1.441,2.10024 4.2666,3.25731 8.1179,3.64821 3.9476,0.40068 13.3184,-1.14583 20.3259,-3.35452 5.7079,-1.79907 7.26,-1.56779 7.26,1.08187 0,2.00637 -2.4425,3.29913 -10,5.29287 -6.8623,1.81034 -17.086,2.55284 -21.1141,1.53342 z m 19.0405,-34.41814 c 3.2526,-7.65969 6.2685,-8.71396 11.1904,-6.1658 2.3963,1.24061 1.2358,2.01427 2.3963,1.24061 0.081,-0.0539 1.4214,-0.18941 0.5653,1.46605 -0.5394,1.04302 -1.1365,1.98204 -2.1002,2.82816 -2.3934,2.10146 -4.7085,2.46301 -7.5323,1.1764 -1.5432,-0.70315 -1.0885,-1.96168 -3.3561,1.25 -3.4593,4.89949 -3.4986,3.70375 -1.1634,-1.79542 z m -5.1139,-18.12847 c 0,-0.37796 0.9843,-2.95873 2.1875,-5.73504 1.2031,-2.77631 2.44,-5.91095 2.44,-6.34855 0,-0.4376 -1.1809,-1.44117 -2.47,-2.38446 -1.6873,-1.23469 -3.8796,-2.22123 -5.0531,-3.11737 -1.5844,-1.20997 -1.831,-2.20317 -1.3595,-2.93084 0.9119,-1.40724 1.8882,-2.00119 4.4681,-0.46197 3.6574,2.18204 7.603,4.31757 8.0587,5.02008 1.2896,1.98823 0.3774,4.91812 -3.3327,10.70306 -3.5176,5.48471 -4.939,6.99712 -4.939,5.25509 z m -37.5281,217.61726 c 0.686,-1.34473 3.8273,-5.63379 6.9806,-9.53125 6.373,-7.87702 8.063,-11.13598 11.4536,-22.08628 l 2.3222,-7.5 -1.1678,-5 c -1.1515,-4.93065 -1.1934,-4.99788 -3.0204,-4.84722 -5.7494,0.47414 -11.622,0.31419 -14.4792,-0.39436 -1.7884,-0.4435 -3.5009,-0.6523 -3.8056,-0.46399 -0.3114,0.19248 -0.1822,2.06373 0.295,4.27398 1.1522,5.33577 1.1268,12.40976 -0.064,17.68395 -0.6089,2.69811 -2.7105,7.77751 -5.4878,13.26365 -5.4297,10.72546 -5.4101,11.1055 0.7597,14.69278 2.2265,1.29454 4.2547,2.35371 4.507,2.35371 0.2524,0 1.0201,-1.10024 1.7062,-2.44497 z m -12.902,-14.52317 c 5.3459,-10.29342 6.9593,-15.5037 6.9386,-22.40686 -0.021,-6.97463 -2.632,-17.22843 -4.2504,-16.69117 -0.8122,0.26965 -4.8056,6.89259 -9.4989,15.75367 -3.1077,5.86725 -10.2592,22.59969 -10.2592,24.00329 0,0.78542 11.2899,7.58874 12.2633,7.38988 0.3854,-0.0788 2.5484,-3.70071 4.8066,-8.04881 z"
       style="display:inline;fill:#4a2b0c;fill-opacity:1"
       sodipodi:nodetypes="ccccccccccccsssssscssssssssssssscsssssssscsssssssssssscssscsssscsscssscccssssssssscsscsssssscsssssssssssscsssscssssssscssscscssscssscsssscsscssssssssssscsscssscssssssssccsssssssssssssscsssssssscsscsscscsccsssssccsssccsssssscssssssssssssssssscsccsscssssssssssssssssscsssssssssscssscsssssccssssscss" />
  </g>
  <g
     inkscape:groupmode="layer"
     id="layer2"
     inkscape:label="hyenaR"
     style="display:inline"
     transform="translate(-181.399,-135.98975)">
    <g
       style="font-style:normal;font-weight:normal;font-size:50px;line-height:125%;font-family:sans-serif;letter-spacing:0px;word-spacing:0px;display:inline;fill:#4a2b0c;fill-opacity:1;stroke:none;stroke-width:1px;stroke-linecap:butt;stroke-linejoin:miter;stroke-opacity:1"
       id="text3521">
      <path
         d="m 284.78876,242.28345 0,12.80273 q 1.875,-1.11328 3.77929,-1.64062 1.9336,-0.55664 3.89649,-0.55664 3.10547,0 5.53711,1.05468 2.43164,1.05469 4.01367,3.33985 1.61133,2.25586 1.61133,5.71289 l 0,11.27929 q 2.28515,0 2.98828,0.43946 1.40625,0.9082 1.40625,2.57812 0,1.31836 -0.9082,2.16797 -0.90821,0.82031 -3.07618,0.82031 l -6.85546,0 q -2.13868,0 -3.07618,-0.82031 -0.9082,-0.84961 -0.9082,-2.19726 0,-1.64063 1.40625,-2.54883 0.73242,-0.46875 2.98828,-0.43946 l 0,-10.86914 q 0,-2.31445 -1.05469,-3.25195 -1.37695,-1.25976 -4.07226,-1.25976 -1.99219,0 -3.54492,0.79101 -1.52344,0.76172 -4.13086,3.33984 l 0,11.25 q 2.31445,0 2.98828,0.43946 1.43555,0.9082 1.43555,2.57812 0,1.31836 -0.9375,2.16797 -0.90821,0.82031 -3.07618,0.82031 l -6.82617,0 q -2.16797,0 -3.10547,-0.82031 -0.9082,-0.84961 -0.9082,-2.19726 0,-1.64063 1.43555,-2.54883 0.70312,-0.46875 2.98828,-0.43946 l 0,-25.98632 -1.02539,0 q -2.16797,0 -3.10547,-0.82032 -0.9082,-0.84961 -0.9082,-2.19726 0,-1.31836 0.9082,-2.13867 0.9375,-0.84961 3.10547,-0.84961 l 7.03125,0 z"
         style="font-style:normal;font-variant:normal;font-weight:bold;font-stretch:normal;font-size:60px;font-family:'Courier New';-inkscape-font-specification:'Courier New Bold';fill:#4a2b0c;fill-opacity:1"
         id="path4145"
         inkscape:connector-curvature="0" />
      <path
         d="m 323.60712,280.07642 -10.40039,-20.39063 q -1.46485,-0.17578 -2.22657,-0.99609 -0.76172,-0.82032 -0.76172,-1.99219 0,-1.34766 0.90821,-2.16797 0.9375,-0.84961 3.10547,-0.84961 l 5.47851,0 q 2.16797,0 3.07617,0.84961 0.9375,0.82031 0.9375,2.16797 0,1.31836 -0.9375,2.16797 -0.9082,0.82031 -2.90039,0.82031 l 7.08985,13.79883 7.03125,-13.79883 q -1.9336,0 -2.8711,-0.82031 -0.9082,-0.84961 -0.9082,-2.19727 0,-1.31836 0.9082,-2.13867 0.9375,-0.84961 3.10547,-0.84961 l 5.6543,0 q 2.13867,0 3.04687,0.84961 0.9375,0.82031 0.9375,2.16797 0,1.20117 -0.79101,2.05078 -0.79102,0.82031 -2.34375,0.9375 l -13.76953,27.12891 q 2.25586,0 2.95898,0.43945 1.40625,0.9082 1.40625,2.57813 0,1.31835 -0.9375,2.13867 -0.9082,0.84961 -3.07617,0.84961 l -13.0957,0 q -2.16797,0 -3.10547,-0.84961 -0.90821,-0.82032 -0.90821,-2.13867 0,-1.34766 0.90821,-2.19727 0.9375,-0.82031 3.10547,-0.82031 l 5.97656,0 3.39844,-6.73828 z"
         style="font-style:normal;font-variant:normal;font-weight:bold;font-stretch:normal;font-size:60px;font-family:'Courier New';-inkscape-font-specification:'Courier New Bold';fill:#4a2b0c;fill-opacity:1"
         id="path4147"
         inkscape:connector-curvature="0" />
      <path
         d="m 378.01141,270.02759 -24.63867,0 q 0.9375,2.34375 3.31055,3.77929 2.40234,1.43555 6.47461,1.43555 3.33984,0 8.87695,-1.43555 2.28516,-0.58593 3.16406,-0.58593 1.20118,0 2.02149,0.84961 0.82031,0.84961 0.82031,2.13867 0,1.17187 -0.87891,1.99219 -1.17187,1.08398 -5.71289,2.08007 -4.54101,0.9668 -8.73047,0.9668 -7.20703,0 -11.54296,-4.07226 -4.30664,-4.07227 -4.30664,-10.01954 0,-6.32812 4.6582,-10.2832 4.6875,-3.98437 10.78125,-3.98437 3.66211,0 6.70898,1.28906 3.07617,1.28906 4.57032,2.7832 2.10937,2.16797 3.48632,5.36133 0.9375,2.22656 0.9375,5.15625 l 0,2.54883 z m -6.65039,-6.00586 q -1.37695,-2.57813 -3.60351,-3.83789 -2.22657,-1.28906 -5.30274,-1.28906 -3.04687,0 -5.27343,1.28906 -2.22657,1.25976 -3.63282,3.83789 l 17.8125,0 z"
         style="font-style:normal;font-variant:normal;font-weight:bold;font-stretch:normal;font-size:60px;font-family:'Courier New';-inkscape-font-specification:'Courier New Bold';fill:#4a2b0c;fill-opacity:1"
         id="path4149"
         inkscape:connector-curvature="0" />
      <path
         d="m 392.83563,253.67993 0,2.02149 q 1.64063,-1.40625 3.60352,-2.10938 1.99219,-0.70312 4.30664,-0.70312 5.33203,0 8.4375,3.31054 2.46094,2.63672 2.46094,6.91407 l 0,11.1621 q 1.90429,0 2.8125,0.84961 0.9082,0.82032 0.9082,2.16797 0,1.31836 -0.9375,2.16797 -0.9082,0.82031 -3.07617,0.82031 l -5.41992,0 q -2.16797,0 -3.10547,-0.82031 -0.90821,-0.84961 -0.90821,-2.19726 0,-1.31836 0.90821,-2.13868 0.9082,-0.84961 2.8125,-0.84961 l 0,-11.33789 q 0,-1.96289 -1.05469,-2.87109 -1.37695,-1.17187 -4.13086,-1.17187 -2.08008,0 -3.66211,0.82031 -1.55273,0.79101 -3.95508,3.39844 l 0,11.1621 q 2.31446,0 2.98828,0.43946 1.43555,0.8789 1.43555,2.57812 0,1.31836 -0.9375,2.16797 -0.9082,0.82031 -3.07617,0.82031 l -6.82617,0 q -2.16797,0 -3.10547,-0.82031 -0.90821,-0.84961 -0.90821,-2.19726 0,-1.64063 1.40625,-2.54883 0.70313,-0.43946 3.01758,-0.43946 l 0,-14.58984 q -1.90429,0 -2.8125,-0.84961 -0.9082,-0.84961 -0.9082,-2.16797 0,-1.31836 0.9082,-2.13867 0.9375,-0.84961 3.10547,-0.84961 l 5.71289,0 z"
         style="font-style:normal;font-variant:normal;font-weight:bold;font-stretch:normal;font-size:60px;font-family:'Courier New';-inkscape-font-specification:'Courier New Bold';fill:#4a2b0c;fill-opacity:1"
         id="path4151"
         inkscape:connector-curvature="0" />
      <path
         d="m 440.29657,280.28149 0,-1.40625 q -2.25586,1.20118 -4.98047,1.78711 -2.72461,0.61524 -4.95117,0.61524 -4.83399,0 -7.85156,-2.54883 -3.01758,-2.57813 -3.01758,-5.68359 0,-3.7793 3.83789,-7.00196 3.86719,-3.25195 10.66406,-3.25195 2.72461,0 6.29883,0.58594 l 0,-1.43555 q 0,-1.34766 -1.17188,-2.19727 -1.14257,-0.8496 -4.39453,-0.8496 -2.66601,0 -6.91406,1.05468 -1.58203,0.38086 -2.46094,0.38086 -1.20117,0 -2.05078,-0.84961 -0.82031,-0.8789 -0.82031,-2.22656 0,-0.76172 0.29297,-1.31836 0.29297,-0.55664 0.82031,-0.87891 0.52734,-0.35156 2.19727,-0.82031 2.22656,-0.61523 4.54101,-0.96679 2.31446,-0.38086 4.18946,-0.38086 5.5957,0 8.67187,2.43164 3.10547,2.40234 3.10547,6.59179 l 0,12.36328 1.02539,0 q 2.16797,0 3.07617,0.84961 0.9375,0.82032 0.9375,2.16797 0,1.31836 -0.9375,2.16797 -0.9082,0.82031 -3.07617,0.82031 l -7.03125,0 z m 0,-10.75195 q -3.60352,-0.70312 -6.65039,-0.70312 -3.66211,0 -6.29883,1.78711 -1.64062,1.14257 -1.64062,2.31445 0,0.84961 0.79101,1.37695 1.46485,0.9668 4.01367,0.9668 2.16797,0 4.89258,-0.84961 2.75391,-0.84961 4.89258,-2.31445 l 0,-2.57813 z"
         style="font-style:normal;font-variant:normal;font-weight:bold;font-stretch:normal;font-size:60px;font-family:'Courier New';-inkscape-font-specification:'Courier New Bold';fill:#4a2b0c;fill-opacity:1"
         id="path4153"
         inkscape:connector-curvature="0" />
      <path
         d="m 464.67157,266.71704 0,7.55859 2.16797,0 q 2.16797,0 3.07617,0.84961 0.9375,0.82032 0.9375,2.16797 0,1.31836 -0.9375,2.16797 -0.9082,0.82031 -3.07617,0.82031 l -9.11133,0 q -2.16797,0 -3.10547,-0.82031 -0.9082,-0.84961 -0.9082,-2.19726 0,-1.31836 0.9375,-2.13868 0.9375,-0.84961 3.07617,-0.84961 l 0.9375,0 0,-23.49609 -0.9375,0 q -2.16797,0 -3.10547,-0.82031 -0.9082,-0.84961 -0.9082,-2.19727 0,-1.34765 0.9082,-2.16797 0.9375,-0.84961 3.10547,-0.84961 l 13.59375,0.0293 q 6.35742,0 9.84375,3.16406 3.51563,3.13477 3.51563,7.64649 0,2.8125 -1.64063,5.12695 -1.64062,2.28516 -4.95117,4.07227 1.9043,1.66992 4.07226,4.27734 1.34766,1.66992 3.63282,5.21484 2.28515,0 3.01757,0.46875 1.31836,0.90821 1.31836,2.54883 0,1.31836 -0.9082,2.16797 -0.9082,0.82031 -3.07617,0.82031 l -3.42774,0 q -7.29492,-11.27929 -12.0996,-13.56445 l -5.94727,0 z m 0,-6.00586 4.6875,0 q 2.60742,0 4.6582,-0.79101 2.75391,-1.05469 3.69141,-2.22657 0.9668,-1.17187 0.9668,-2.31445 0,-1.69922 -1.81641,-3.13477 -1.81641,-1.46484 -5.30273,-1.46484 l -6.88477,0 0,9.93164 z"
         style="font-style:normal;font-variant:normal;font-weight:bold;font-stretch:normal;font-size:60px;font-family:'Courier New';-inkscape-font-specification:'Courier New Bold';fill:#4a2b0c;fill-opacity:1"
         id="path4155"
         inkscape:connector-curvature="0" />
    </g>
  </g>
  <g
     inkscape:groupmode="layer"
     id="layer3"
     inkscape:label="eyes"
     style="display:inline"
     transform="translate(-181.399,-135.98975)">
    <ellipse
       style="fill:#ffffff;fill-opacity:1"
       id="path4345"
       cx="406.48181"
       cy="352.54422"
       rx="0.80000001"
       ry="0.69999999" />
    <ellipse
       style="fill:#ffffff;fill-opacity:1"
       id="path4347"
       cx="376.52274"
       cy="353.65082"
       rx="0.69300002"
       ry="0.53850001" />
  </g>
</svg>
